/* XPM */
static char *result[] = {
/* columns rows colors chars-per-pixel */
"16 16 206 2 ",
"   c #0F0C08",
".  c #1C1302",
"X  c #15120D",
"o  c #18130B",
"O  c #1B1608",
"+  c #1A140B",
"@  c #1A150C",
"#  c #1B160D",
"$  c #1A160E",
"%  c #1C170D",
"&  c #1F180D",
"*  c #1F190D",
"=  c #1F180E",
"-  c #1F1B12",
";  c #221703",
":  c #201705",
">  c #291C06",
",  c #241B09",
"<  c #261E0F",
"1  c #261F10",
"2  c #241F14",
"3  c #281F10",
"4  c #2B210B",
"5  c #2C2009",
"6  c #2B220D",
"7  c #2D210F",
"8  c #2C220E",
"9  c #2F240C",
"0  c #2E240E",
"q  c #30230B",
"w  c #35280E",
"e  c #2A2213",
"r  c #2D2411",
"t  c #2F2511",
"y  c #2E2512",
"u  c #2F2513",
"i  c #292417",
"p  c #2A2416",
"a  c #2D2615",
"s  c #2E2716",
"d  c #2F2716",
"f  c #26261C",
"g  c #302510",
"h  c #322710",
"j  c #332711",
"k  c #302612",
"l  c #312712",
"z  c #302613",
"x  c #302713",
"c  c #322713",
"v  c #332910",
"b  c #332912",
"n  c #332913",
"m  c #322A13",
"M  c #322814",
"N  c #352A14",
"B  c #362B14",
"V  c #372D14",
"C  c #3B2D11",
"Z  c #392D13",
"A  c #3A2E12",
"S  c #3A2E14",
"D  c #3A2E15",
"F  c #3A2F16",
"G  c #352C18",
"H  c #3F3217",
"J  c #3F3417",
"K  c #3F3218",
"L  c #363422",
"P  c #353324",
"I  c #353424",
"U  c #3A3623",
"Y  c #3E3621",
"T  c #3A3827",
"R  c #3A3A28",
"E  c #3B3A28",
"W  c #3C3A28",
"Q  c #3E3D29",
"!  c #473716",
"~  c #493917",
"^  c #45391A",
"/  c #45391B",
"(  c #44391E",
")  c #443A1E",
"_  c #483A19",
"`  c #483A1A",
"'  c #493B1B",
"]  c #483C1B",
"[  c #493C1B",
"{  c #4D3E1C",
"}  c #413820",
"|  c #453B20",
" . c #443A21",
".. c #473C20",
"X. c #423B24",
"o. c #473D24",
"O. c #493E21",
"+. c #483F23",
"@. c #493F24",
"#. c #413F2A",
"$. c #53411B",
"%. c #55411B",
"&. c #51431E",
"*. c #50421F",
"=. c #55461D",
"-. c #58471E",
";. c #5A471E",
":. c #5B4B1F",
">. c #5F4E1E",
",. c #4D4123",
"<. c #484024",
"1. c #4B4024",
"2. c #4F4426",
"3. c #47432B",
"4. c #42412C",
"5. c #47462F",
"6. c #4A472C",
"7. c #49452F",
"8. c #4D472C",
"9. c #4E482F",
"0. c #524320",
"q. c #554520",
"w. c #564926",
"e. c #594822",
"r. c #5F4F27",
"t. c #584C2B",
"y. c #5F522D",
"u. c #4A4730",
"i. c #565336",
"p. c #5B5232",
"a. c #5D5535",
"s. c #5C5736",
"d. c #5D5939",
"f. c #644E20",
"g. c #665120",
"h. c #645022",
"j. c #625026",
"k. c #675527",
"l. c #6C5625",
"z. c #6C582B",
"x. c #705C25",
"c. c #7B5F23",
"v. c #675A31",
"b. c #6D5F36",
"n. c #605D3D",
"m. c #615F3F",
"M. c #7E652B",
"N. c #7F662A",
"B. c #6E6036",
"V. c #67613C",
"C. c #6B623D",
"Z. c #6C663F",
"A. c #50574A",
"S. c #645F41",
"D. c #666442",
"F. c #6B6341",
"G. c #6A6641",
"H. c #6D6C48",
"J. c #77754D",
"K. c #77754E",
"L. c #696950",
"P. c #717258",
"I. c #77775A",
"U. c #77775B",
"Y. c #71765F",
"T. c #5E6E67",
"R. c #657063",
"E. c #6F7561",
"W. c #6B7565",
"Q. c #6B7769",
"!. c #6F7968",
"~. c #6F7A69",
"^. c #6B7A6E",
"/. c #797D65",
"(. c #717E6A",
"). c #856726",
"_. c #886927",
"`. c #8A6F2B",
"'. c #947027",
"]. c #93722B",
"[. c #95722A",
"{. c #95752D",
"}. c #877139",
"|. c #7E8771",
" X c #A8812F",
".X c #A28331",
"XX c #B08833",
"oX c #B68D34",
"OX c #B68E35",
"+X c #BB993A",
"@X c #BD993A",
"#X c #C19637",
"$X c #C39F3C",
"%X c #C7A33D",
"&X c #D0A83F",
"*X c #A59B58",
"=X c #888868",
"-X c #8C9576",
";X c #D0AD43",
":X c #CDB252",
">X c #C7B861",
",X c #E5C656",
"<X c #F1D05A",
"1X c #8BA08E",
"2X c #FFFD8C",
"3X c None",
/* pixels */
"3X3X3X3X3XU.F.d.}.a.Y.3X3X3X3X3X",
"3X3X3X/.*.A &.] k.J -.{ ~.3X3X3X",
"3X3XA.6 V.s.3.Z.L U 8.6.O (.3X3X",
"3XT.: J.K.H.5.E R Q f 4.D.. ^.3X",
"3X0 / | G d e a ) 2 X s ..m v 3X",
"R.> _ r N c b *X,Xc.< y N B ; !.",
"9.w F k % g ;X2X:X'.OX:.= 1 , 7.",
"^ S x * ' $.%X>X<X X#X>.  @ n j.",
"[ Z 3 o M.;.+X.X@X].oXx.u N.h.z.",
"S.9 M y ` f.$X).[._.XX=.z l.~ C.",
"1XC H K # %.`.g.&X{.7 & + D 5 W.",
"3Xr.,.t.$ - i p O.o.Y @.y.( 0.3X",
"3X|.w.m.T I W #.P u.i.G.n.V Q.3X",
"3X3XI.C <.1. .B.} +.2.X.4 L.3X3X",
"3X3X3X=Xv.h j t l 8 q ! E.3X3X3X",
"3X3X3X3X3X-Xb.q.e.p.P.3X3X3X3X3X"
};
