/* XPM */
static char *result[] = {
/* columns rows colors chars-per-pixel */
"48 48 218 2 ",
"   c #010101",
".  c #090604",
"X  c #0C0A06",
"o  c #0E0C09",
"O  c #120E0A",
"+  c #100C06",
"@  c #15110B",
"#  c #1B160C",
"$  c #1E190E",
"%  c #151007",
"&  c #171711",
"*  c #181611",
"=  c #1D1B13",
"-  c #231C0E",
";  c #2B1F0D",
":  c #241E11",
">  c #281F10",
",  c #2B220E",
"<  c #262113",
"1  c #2B2313",
"2  c #242319",
"3  c #2A271A",
"4  c #2D2A1B",
"5  c #2F2817",
"6  c #302713",
"7  c #342A15",
"8  c #392E15",
"9  c #332C1A",
"0  c #382E1A",
"q  c #3D3116",
"w  c #37311D",
"e  c #3C321C",
"r  c #2D2D20",
"t  c #343324",
"y  c #3A3623",
"u  c #3B3926",
"i  c #3D3C29",
"p  c #373829",
"a  c #302F20",
"s  c #423416",
"d  c #4B3B17",
"f  c #42351A",
"g  c #45391C",
"h  c #4B3C1B",
"j  c #513F1B",
"k  c #412F12",
"l  c #433C24",
"z  c #4A3E22",
"x  c #423E29",
"c  c #403620",
"v  c #4F411E",
"b  c #54431D",
"n  c #59461C",
"m  c #5C491E",
"M  c #534017",
"N  c #634D1D",
"B  c #6E531E",
"V  c #73581F",
"C  c #4D4324",
"Z  c #45422C",
"A  c #4B452B",
"S  c #4D492E",
"D  c #464027",
"F  c #544521",
"G  c #5C4B23",
"H  c #554B2C",
"J  c #5A4D2A",
"K  c #574822",
"L  c #484731",
"P  c #4B4A32",
"I  c #464531",
"U  c #545339",
"Y  c #5D5A3C",
"T  c #565335",
"R  c #534F32",
"E  c #624E22",
"W  c #645224",
"Q  c #6B5524",
"!  c #6F5A25",
"~  c #67572C",
"^  c #725622",
"/  c #735A24",
"(  c #7B5D24",
")  c #755E2C",
"_  c #675B34",
"`  c #735F31",
"'  c #7B6125",
"]  c #7D652B",
"[  c #73602E",
"{  c #6C623B",
"}  c #64603E",
"|  c #746235",
" . c #796331",
".. c #7A6A38",
"X. c #7A6937",
"o. c #6B6845",
"O. c #7B764A",
"+. c #7A7952",
"@. c #726F48",
"#. c #80662A",
"$. c #856A2D",
"%. c #8B6E2B",
"&. c #886826",
"*. c #926E27",
"=. c #8E712C",
"-. c #95742D",
";. c #9C7A2E",
":. c #9A772C",
">. c #826B32",
",. c #866E36",
"<. c #8D7333",
"1. c #8A773D",
"2. c #84733B",
"3. c #917533",
"4. c #957933",
"5. c #9B7C33",
"6. c #957B3B",
"7. c #9A7E3B",
"8. c #A57B2D",
"9. c #AD7F2E",
"0. c #8A7942",
"q. c #817E51",
"w. c #907F4B",
"e. c #7A8A7C",
"r. c #9C813C",
"t. c #9F8034",
"y. c #AC802F",
"u. c #A48335",
"i. c #AD8431",
"p. c #A4853A",
"a. c #AD8B3B",
"s. c #AA8B35",
"d. c #B18531",
"f. c #B48A34",
"g. c #B18E39",
"h. c #B98E35",
"j. c #BC9236",
"k. c #B4913B",
"l. c #BD963A",
"z. c #BE9A3C",
"x. c #C49A3A",
"c. c #C59A39",
"v. c #C5A23E",
"b. c #CCA33D",
"n. c #D1A63E",
"m. c #D3A93F",
"M. c #968044",
"N. c #9D8442",
"B. c #95834B",
"V. c #9F8A49",
"C. c #8B8352",
"Z. c #888457",
"A. c #958B57",
"S. c #9D925C",
"D. c #8E814F",
"F. c #A68C46",
"G. c #AC9349",
"H. c #B69746",
"J. c #A4965D",
"K. c #AB9B5B",
"L. c #A89555",
"P. c #B59D53",
"I. c #A18F52",
"U. c #BAA358",
"Y. c #888765",
"T. c #989564",
"R. c #8E9272",
"E. c #989A76",
"W. c #8E906E",
"Q. c #A69B61",
"!. c #AAA56B",
"~. c #B4A867",
"^. c #B7B478",
"/. c #BBB16F",
"(. c #C7A842",
"). c #C9A843",
"_. c #D6AA40",
"`. c #D9AD41",
"'. c #DCB243",
"]. c #DBB544",
"[. c #C5AA59",
"{. c #E6BB46",
"}. c #E6BE48",
"|. c #E5BA46",
" X c #CDB966",
".X c #D8BC64",
"XX c #C5BA72",
"oX c #EDC34A",
"OX c #F4CA4C",
"+X c #F4C94B",
"@X c #FBD14E",
"#X c #EECC55",
"$X c #FBD95A",
"%X c #FFE65E",
"&X c #D8C675",
"*X c #DED17D",
"=X c #D1C371",
"-X c #F3D96A",
";X c #F3DF72",
":X c #FFEC74",
">X c #FEE874",
",X c #FFE56D",
"<X c #9FA98C",
"1X c #ABAA81",
"2X c #BBD6B2",
"3X c #CBC888",
"4X c #DBDB94",
"5X c #D7D385",
"6X c #E8DC86",
"7X c #EFE687",
"8X c #F5E884",
"9X c #FFF38B",
"0X c #E8E696",
"qX c #F0EB94",
"wX c #FBF99E",
"eX c #FEFEA3",
"rX c #E0EEB2",
"tX c None",
/* pixels */
"tXtXtXtXtXtXtXtXtXtXtXtXtXtXtXtXtXtXtXtX^.3X4X3X~.P.L.Q.E.tXtXtXtXtXtXtXtXtXtXtXtXtXtXtXtXtXtXtX",
"tXtXtXtXtXtXtXtXtXtXtXtXtXtXtXtXJ.F.3.) J e r 2 f f s h Q -.F.Q.tXtXtXtXtXtXtXtXtXtXtXtXtXtXtXtX",
"tXtXtXtXtXtXtXtXtXtXtXtXtXE.F.%.N 8   8 E     , a.3.4.G     # n -.G.E.tXtXtXtXtXtXtXtXtXtXtXtXtX",
"tXtXtXtXtXtXtXtXtXtXtXtXN.' 6   1 >.v n v +   , $.,.4.E     f E   6 &.G.tXtXtXtXtXtXtXtXtXtXtXtX",
"tXtXtXtXtXtXtXtXtXtXA.;.] -     . 7 v ~ q r.p.C [ G.<.e K < W G 2.X.0 8 5.Q.tXtXtXtXtXtXtXtXtXtX",
"tXtXtXtXtXtXtXtXtXr.n F .._ C 5 H _ U.1.4 H ..w 7 C e g F.P.D C C 2..   X ! [.tXtXtXtXtXtXtXtXtX",
"tXtXtXtXtXtXtXtXt.q   R u   ..=X0.3 w 4 w D U.} w 5 4 w = 1 4 U. XS         H 6XtXtXtXtXtXtXtXtX",
"tXtXtXtXtXtXtX-.,     & C.~.l v u A A S A R *X} u p i Z u p 4 & D S XXA       A *XtXtXtXtXtXtXtX",
"tXtXtXtXtXtX5.,       +.5XP p v P Z Z Z i Z Z.P w t t u t i i p 2 & +.0X9       l  XtXtXtXtXtXtX",
"tXtXtXtXtXr.s     2 3XP t +.Y e.e.^.U p Z i t w u u i t t a t t p t & & +.!..     K P.tXtXtXtXtX",
"tXtXtXtXZ.N     X 4X^.o.^.^.!.^.B.A.P P L P L L I I u t t a a r r t 4 U U 4XT.      ( J.tXtXtXtX",
"tXtXtXtX&.X   O { Y C.S.Y Z Z p u D Z Z i u Z D Z t L ~.i r r r 2 3 = @.!.3 } S     o 9.tXtXtXtX",
"tXtXtXN.8     1.L.= S e w 4 w g D w a 5 5 a 5 a 5 5 e T 5 2 2 < : : & C ..o <  Xg     f H.tXtXtX",
"tXtXR.'     @ p.q q q 6 , 7 q 7 , - , , 5 8 6 6 $ = , $ $ $ $ $ # = # 3 <.1 X K ,.      4.E.tXtX",
"tXtXF.7   . Q - 8 q 7 1 6 q 7 < - 6 5 , 6 6 6 $ ~ ! # @ = $ # @ O # # q b # = . q j     q U.tXtX",
"tXtX<..   h u.6 q q 1 1 q 5 < 7 7 5 , 5 , $ 4 !.:X@Xg.d + @ $ # # # # 0 3.: $ # q k.%     p.tXtX",
"tXS.n     / G 8 8 6 1 0 7 : > Q 5 6 , @ . < *XeX>XoXoXm.%.6 + % @ $ @ F K # - : O $.q     G ~.tX",
"tXN.-   # n - f 8 1 6 8 6 - h Q 7 , o s H.G.:XqX-X@XoXm.v.y.( 6 $ 8 # m #.$ - : $ $ n     - F.tX",
"tX%.    W =.6 8 6 , 7 6 > : q > < o W }.%X:X7XqX-Xz.v.m.x.y.d.j.;.v @ < 7 - - 1 : 1 a.-     %.tX",
"R.V     ] E 8 8 1 6 8 6 > 6 # X $ M n.OX$X:X9XwX:X=.$ V h.f.y.j.].].7 $ : : : 1 @ @ %.b     ^ W.",
"S.M     h , 8 1 1 , 6 6 > @ . X - ' m.m.$X:X9XwX:X@Xz.d , B :.f.b.OXf X : : : # o O 6 #     h A.",
"I.8   - t.6 7 7 1 6 7 1 O O : 1 < V m.OXm...7XwX:XOXoXm.*.q &.j._.OXq X 7 1 # O @ - - - $ $ h B.",
"F.>   , u.1 8 7 6 6 > X # 5.5.8 , V m.OXv.& 7X7X,X@X{.b.j.d.8.j._.OXs   7 - O # > 1 1 7 W E h 6.",
"g.-   % h , 8 6 1 - O @ 7 a.5.6 - ! m.@Xv.- #X%X#X).b.b.c.d.8.j.n.-.+   - @ % - , : , 6 m n q 6.",
"k.:   - #., 7 7 # + O - 8 5.5.6 - / m.+X(.% ].+X@X3.s.m.v.f.8.y.v.z.8 . % % : 1 1 1 1 7 / Q h 6.",
"H.1   - s.6 7 7 #   1 1 8 a.u.7 - / `.oX(.+ v.|.}.=.s.|.b.*.*.i.l.oX/ < . o h 3.5.5.$.K ! Q h M.",
"P.f   o ) > 6 1 # # - > 8 g.p.6 - V m.+Xv.X g.n.m.&.g.b.d . m d.n.OX/ @ W ] W u.x.l.u.h b G h B.",
"~.Q     n 8 6 1 - - # # q k.g.f 1 ( m.oX(.. 8.j.j.&.d X % V 8.h.n.OX' . q z G u.H.l.u.h K Q G A.",
"1XN.    #.] > 6 - > h # O G j 1 - ^ m.oXv.  &.y.9.(   N c.j.8.f.`.).s . - # 7 b m m j 1 n Q / R.",
"tX Xo   s #.- 1 - - 5.f # X 1 $., ( n.oXv.  &.d.9.-.l.{.c.f.9.d.( 6 o - : > - - - # - 1 1 7 <.tX",
"tXqXZ     F 6 1 > : j 7 : # 8 E ^ h.b.oX(.  ;.c.c.x.}.'.b.h.&.6 - # # 6 1 > # 6 f j 7 % % 6 N.tX",
"tXrXA.1 # ! %.> - f <.- # = O > k &.b.oX-.. =.{.{.b.{.{.d.j O ; 1 % 1 6 1 #   # 8 s.7     b S.tX",
"tXtX&X6 1 # p.: > 1 E > * - > 0 - * E E @ - - j H.{.|.#.> * 5 > O > 7 6 :   o - h 4.  ~ > >.tXtX",
"tXtX&XG 9 o 6 J : F 6.= @ > 0 :   o - * > 1 > : : j k O > 0 > # 5 9 6 1 ~ ] : 7 ~ O : ~ g F.tXtX",
"tXtX<XG.7 l . [.` 3 X.5 O * O : : # 4 > e 4 5 0 0 4 c 0.w e f 3 5 7 5 > ,.w.2 G.1.  | : #.R.tXtX",
"tXtXtX).N A = y I.c I.9 = & : : r > . A c 9 e y c c z w.l _ { A { y J @.w.: y P.+ * x d F.tXtXtX",
"tXtXtXtXi.y o.. : ^.w.y r r = = r XXY y y x y y x x x y A S._ S.O.K.C.C.L q.Q.. 3 P - -.e.tXtXtX",
"tXtXtXtXK.&.U Y.  Z.0Xr : r t r : i t t p y t x p t L L i p p x x Y p & o.wXx   U # B D.tXtXtXtX",
"tXtXtXtXtXH.N o.+.  U O.O.r p p y r r t y i o.9   3 p L i x Z I Z p i A.o.p O U p d 7.tXtXtXtXtX",
"tXtXtXtXtXtXj.N I .   x 5XJ.* r t y y y x y 6XS : L x y x l x t 3 t .X^.O   o.t 7 ;.tXtXtXtXtXtX",
"tXtXtXtXtXtXtXl.f 4 A   % H X.M.z < 4 9 0 J .X| c A c y w 3 9 J I.~ H     @ o 8 :.tXtXtXtXtXtXtX",
"tXtXtXtXtXtXtXtXj.Q e z =   6 6.6.F  .z > w J q 3 7 7 7 G ] z G.) o   7 l 6 j 4.tXtXtXtXtXtXtXtX",
"tXtXtXtXtXtXtXtXtXH.&.f X.K       f 6.7.l 4.3.z Q p.] K F.$.$     # g 1 1 B 7.tXtXtXtXtXtXtXtXtX",
"tXtXtXtXtXtXtXtXtXtXL.i.! C 8 . @       + s j 7 f h 6 .     . # K F @ s *.D.tXtXtXtXtXtXtXtXtXtX",
"tXtXtXtXtXtXtXtXtXtXtXtX X&Xq.2 f c 0 : #             @ - X f q 7 d ' 7.Y.tXtXtXtXtXtXtXtXtXtXtX",
"tXtXtXtXtXtXtXtXtXtXtXtXtX2X0X&X0.F h g f   * > 6 3 # 8 1 @ q m &.6.Y.tXtXtXtXtXtXtXtXtXtXtXtXtX",
"tXtXtXtXtXtXtXtXtXtXtXtXtXtXtXtX/.H.8.&.Q K g q s h n N ( -.4.B.tXtXtXtXtXtXtXtXtXtXtXtXtXtXtXtX",
"tXtXtXtXtXtXtXtXtXtXtXtXtXtXtXtXtXtXtXT.I.G.H.k.g.F.F.A.Y.tXtXtXtXtXtXtXtXtXtXtXtXtXtXtXtXtXtXtX"
};
