/* XPM */
static char *result[] = {
/* columns rows colors chars-per-pixel */
"32 32 195 2 ",
"   c #020101",
".  c #090704",
"X  c #0C0905",
"o  c #0C0B09",
"O  c #130E04",
"+  c #120E09",
"@  c #15110A",
"#  c #1A150C",
"$  c #1E180D",
"%  c #1A1101",
"&  c #1D1B13",
"*  c #261B05",
"=  c #231C0E",
"-  c #211602",
";  c #251E11",
":  c #281F10",
">  c #2B200B",
",  c #30240C",
"<  c #36290E",
"1  c #3B2C0F",
"2  c #252114",
"3  c #2C2312",
"4  c #2E2816",
"5  c #25251B",
"6  c #2A2719",
"7  c #2D2B1D",
"8  c #312713",
"9  c #332914",
"0  c #3A2E15",
"q  c #332C1B",
"w  c #3D3116",
"e  c #34301E",
"r  c #3C321B",
"t  c #2E2E21",
"y  c #333324",
"u  c #3A3624",
"i  c #3B3926",
"p  c #3C3C29",
"a  c #44310C",
"s  c #413313",
"d  c #4D3A15",
"f  c #433619",
"g  c #45391C",
"h  c #4B3C1B",
"j  c #473917",
"k  c #523F1B",
"l  c #523C13",
"z  c #443D25",
"x  c #413F2A",
"c  c #403720",
"v  c #4F401D",
"b  c #564116",
"n  c #54431D",
"m  c #5A451B",
"M  c #5D491D",
"N  c #624C1D",
"B  c #6F531F",
"V  c #4B4224",
"C  c #44432C",
"Z  c #49462F",
"A  c #4D482C",
"S  c #544523",
"D  c #554A23",
"F  c #5C4B23",
"G  c #554B2B",
"H  c #5B4E2A",
"J  c #594720",
"K  c #5D5128",
"L  c #4E4C34",
"P  c #484730",
"I  c #544E30",
"U  c #4F503C",
"Y  c #5D5A3B",
"T  c #585335",
"R  c #614E21",
"E  c #665325",
"W  c #6B5421",
"Q  c #6D5927",
"!  c #61532B",
"~  c #69572D",
"^  c #725520",
"/  c #735C25",
"(  c #7C5D21",
")  c #755E28",
"_  c #635733",
"`  c #615D3C",
"'  c #615934",
"]  c #77612C",
"[  c #7C642B",
"{  c #7F662A",
"}  c #6C633C",
"|  c #67613E",
" . c #736231",
".. c #7A6532",
"X. c #756539",
"o. c #7E6D3B",
"O. c #776A3A",
"+. c #656442",
"@. c #6D6843",
"#. c #726C45",
"$. c #74724A",
"%. c #78764E",
"&. c #7B784E",
"*. c #7D7C53",
"=. c #896D2B",
"-. c #876B2A",
";. c #8D7029",
":. c #99732B",
">. c #9A7A2E",
",. c #846D33",
"<. c #816D3A",
"1. c #8C7233",
"2. c #85733D",
"3. c #8A753D",
"4. c #8F7B3E",
"5. c #937632",
"6. c #9C7E31",
"7. c #947B3D",
"8. c #A57B2D",
"9. c #AB7F2F",
"0. c #827343",
"q. c #857A4C",
"w. c #8A7D4A",
"e. c #867947",
"r. c #937F42",
"t. c #887E51",
"y. c #7F8E7D",
"u. c #9C813C",
"i. c #AC812F",
"p. c #A28334",
"a. c #AD8B3A",
"s. c #AA8231",
"d. c #B18531",
"f. c #B48D35",
"g. c #BA8D34",
"h. c #B28E39",
"j. c #BE9A3A",
"k. c #BF9638",
"l. c #C39B3B",
"z. c #C3A33F",
"x. c #CBA23D",
"c. c #CEA83E",
"v. c #D2A63E",
"b. c #D6AA3F",
"n. c #968245",
"m. c #92854B",
"M. c #9D8340",
"N. c #87855A",
"B. c #8F8F5F",
"V. c #8F8752",
"C. c #918C5A",
"Z. c #9C8B51",
"A. c #9D9159",
"S. c #A28E50",
"D. c #AB9B58",
"F. c #B1A05A",
"G. c #8C8C6A",
"H. c #898865",
"J. c #98946B",
"K. c #9D9B6B",
"L. c #999466",
"P. c #828C76",
"I. c #8E9374",
"U. c #959A7A",
"Y. c #A29862",
"T. c #9FA17A",
"R. c #ADA669",
"E. c #ABA668",
"W. c #B7AE6E",
"Q. c #BAB16E",
"!. c #A3A170",
"~. c #C6A541",
"^. c #CDAB41",
"/. c #D4AD41",
"(. c #D8AC40",
"). c #DEB343",
"_. c #E2B644",
"`. c #E5B946",
"'. c #C3BE7D",
"]. c #F6C94A",
"[. c #F8CC4A",
"{. c #E8CB5B",
"}. c #F0CB50",
"|. c #FFE15A",
" X c #F9DD67",
".X c #FEE66F",
"XX c #FFE767",
"oX c #FFEE79",
"OX c #919B80",
"+X c #B8B985",
"@X c #ADB591",
"#X c #FEFB9B",
"$X c #F7F193",
"%X c #C0D6AE",
"&X c None",
/* pixels */
"&X&X&X&X&X&X&X&X&X&X&X&XK.L.!.L.e.2.t.J.&X&X&X&X&X&X&X&X&X&X&X&X",
"&X&X&X&X&X&X&X&X&XL.2.B < n   . ) ) s * n o.J.&X&X&X&X&X&X&X&X&X",
"&X&X&X&X&X&X&XI.,.,   g h h 9 0 1.u.w   v 0 n 1.U.&X&X&X&X&X&X&X",
"&X&X&X&X&X&Xq.W ! e 4 V r.V o.K n H H 3.D  .G   d Y.&X&X&X&X&X&X",
"&X&X&X&X&X2.% & Z T m.V C e } m.e 7 e e i m.I $   4 +X&X&X&X&X&X",
"&X&X&X&Xo.O   C E.C p A C i @.$.i i i i y 2 L R.2   2 E.&X&X&X&X",
"&X&X&Xt.-   N.*.$.N.B.K.L C p p p i t y y y 5 5 B.+.  > A.&X&X&X",
"&X&Xy.a   x C.C.%.+.| T C C p C i C @.7 7 5 5 Y &.%.6   b OX&X&X",
"&X&X]   3 n.q g 3 9 r q 4 4 7 9 ; 4 z ; ; ; # u ! # n.@   1.&X&X",
"&XI.,   n w w 3 9 q = 2 , 4 3 = F 8 + $ # # # 9 n @ 9 f   1 T.&X",
"&X0.  w ) 9 9 3 q 3 w 8 3 @ 2 E..Xc.F # o @ @ w J & @ { $   n.&X",
"&Xb   h w 0 3 0 3 0 M 2 # B F.#X X].(.:.j ; # h n $ $ 0 w   M &X",
"G.* O { 9 9 3 9 3 < = $ 6.|.oX$X{.;.k.g.g.h.R $ 3 = : 3 {   * G.",
"m.. $ h 9 3 8 8 = . X m ).}.oX#X X5.d ^ 8.b.j.@ 2 : # + f   X q.",
"2.  h F 8 3 8 = $ f 2 m _.^.m.#X.X].l.B :.(.l.X 3 $ + = 3 8 9 ,.",
"=.  0 h < 3 = . S a.3 b `.z.K .X{./.x.g.s./.=.  = + # 3 = n n ..",
"1.  h J 3 = o = R p.3 n _.~.b ].).>.).g.8.l.8.@ . : h h w F m ..",
"r.  0 k 3 = @ = R h.3 m _.~.h (.k.p.h.1 -.l./.: f R a.l.1.S n <.",
"D.O # R 3 : ; @ J 6.2 m ).~.9 g.d.1 > B 8.(./.@ 9 h 5.s.) h R q.",
"@Xf . ^ 3 = g k + 8 k N (.~., 9.8.{ l.l.d.6.h + ; : 8 : 3 9 m G.",
"&XV.. f g = g g # ; k :._.z.8 (.c.`.`.s.k : + 3 3 @ 3 M 3 . m &X",
"&X'.9 0 ) # k f # ; : 8 -.S # ^ c.).=.3 $ $ : 9 $   = [ 3 3 o.&X",
"&X@XE & h S S z @ : = o $ ; 3 2 w h 4 4 2 : 8 3  .g ~ 8 r M G.&X",
"&X&X7.z q 0._ L # # ; 6 ; z q q 4 z X.G T G z _ X.z e.# c ] &X&X",
"&X&XU.) L $ W.Y & 5 & #.L u u i x x p | +.#.q.` $.V.o y b P.&X&X",
"&X&X&XS. .U x $.T t y t t y P P ; i C u p p p Y %.u y f w.&X&X&X",
"&X&X&X&XM.F o ; A.H z q t q 0.w.5 x u u u V } m.  2 g <.&X&X&X&X",
"&X&X&X&X&X7.J 6 + e 7.S H r ! ~ r r g F H 4.3 + 2 9 ,.&X&X&X&X&X",
"&X&X&X&X&X&XS.( E #   = E h ] m Q ^ k H @ @ 3 8 m w.&X&X&X&X&X&X",
"&X&X&X&X&X&X&XU.D.e.4 3 + + . . X . X   2 f b ) H.&X&X&X&X&X&X&X",
"&X&X&X&X&X&X&X&X&X%XQ.,.N k @ = 3 : w s N ..N.&X&X&X&X&X&X&X&X&X",
"&X&X&X&X&X&X&X&X&X&X&X&XL.n.7.5.5.7.w.H.&X&X&X&X&X&X&X&X&X&X&X&X"
};
